<svg id="GLOCK_Logo_gruppiert_-_0-0-0-100" data-name="GLOCK Logo gruppiert - 0-0-0-100" xmlns="http://www.w3.org/2000/svg" viewBox="0 0 560.25 474.15"><defs><style>.cls-1{fill:#fff;}</style></defs><title>GLOCK-Logo_0-0-0-0</title><path class="cls-1" d="M340.42,233.41V200.25c0-9.18,7.82-16.34,17.82-16.34s17.84,7.16,17.84,16.34v33.16c0,9.17-7.81,16.35-17.84,16.35s-17.82-7.3-17.82-16.35M321.9,200.25v33.16c0,19.22,16.3,34.86,36.34,34.86s36.39-15.64,36.39-34.86V200.25c0-19.23-16.32-34.87-36.39-34.87S321.9,181,321.9,200.25" transform="translate(-142.01 -53.64)"/><path class="cls-1" d="M545.83,216.86l35.54-35.62a9.27,9.27,0,0,0-13.11-13.1l-38.14,38.25V174.71a9.28,9.28,0,0,0-18.56,0v84.37a9.28,9.28,0,0,0,18.56,0V232.62l2.59-2.75,35,34.87c3.61,3.62,10,4.51,13.59.9a9.26,9.26,0,0,0,0-13.1Z" transform="translate(-142.01 -53.64)"/><path class="cls-1" d="M481.38,232.33a9.53,9.53,0,0,0-11.25,5.75c-.25.57-.6,1.2-.85,1.77-2.72,5.93-9.17,9.91-16.37,9.91A18.56,18.56,0,0,1,440.24,245a15.61,15.61,0,0,1-5.18-11.61V200.26a15.61,15.61,0,0,1,5.18-11.61,18.61,18.61,0,0,1,12.67-4.76c7.2,0,13.65,4,16.37,9.91.25.57.6,1.2.85,1.77a9.53,9.53,0,0,0,11.25,5.75c4.91-1.38,8.07-6.35,6.07-12.14-4.76-13.79-17.67-23.13-33-23.76l-.23,0c-.43,0-.88,0-1.34,0q-1.86,0-3.66.18c-.39,0-.77.12-1.15.17-.81.1-1.62.2-2.41.35-.44.09-.86.21-1.29.31-.72.17-1.45.33-2.15.54-.45.13-.87.3-1.31.44-.67.23-1.34.45-2,.71-.44.17-.86.38-1.28.57-.63.28-1.26.56-1.87.87-.41.21-.81.46-1.21.68-.59.34-1.2.67-1.77,1-.39.25-.75.52-1.13.79-.55.38-1.11.77-1.65,1.18-.36.29-.7.6-1.05.89-.52.44-1,.87-1.52,1.32-.33.32-.64.66-1,1s-.93,1-1.37,1.45c-.3.35-.58.72-.88,1.08-.41.51-.82,1-1.2,1.55s-.54.79-.8,1.19-.71,1.07-1,1.62-.48.87-.71,1.32-.57,1.09-.83,1.66-.41,1-.6,1.44-.45,1.11-.65,1.68-.33,1.05-.48,1.58-.31,1.1-.45,1.67-.24,1.14-.34,1.72-.19,1.08-.26,1.63-.13,1.25-.17,1.88c0,.32-.08.63-.09.95s0,1,0,1.45v33.13c0,.5,0,1,0,1.45s.06.63.09.95c0,.63.09,1.26.17,1.88s.16,1.09.26,1.63.21,1.16.34,1.73.29,1.11.45,1.66.31,1.06.48,1.58.42,1.13.65,1.69.38,1,.6,1.43.54,1.12.83,1.67.46.88.71,1.31.68,1.09,1,1.62.51.8.8,1.19.79,1,1.2,1.55.58.73.88,1.08c.44.5.91,1,1.37,1.45s.64.67,1,1c.49.46,1,.88,1.52,1.32.35.3.69.6,1.05.89.54.41,1.1.8,1.65,1.18.38.27.74.54,1.13.79.57.37,1.18.7,1.77,1,.4.22.8.47,1.21.68.61.32,1.25.59,1.88.87.42.19.83.4,1.26.57.66.27,1.34.48,2,.71.43.15.86.31,1.3.44.7.21,1.43.37,2.15.54.43.1.85.22,1.29.31.79.15,1.6.25,2.41.36.38.05.76.12,1.15.16q1.8.18,3.66.18c.46,0,.91,0,1.34,0l.23,0c15.3-.63,28-9.84,33-23.76A9,9,0,0,0,481.38,232.33Z" transform="translate(-142.01 -53.64)"/><path class="cls-1" d="M267.74,53.64c-39.59,0-76.52,31.77-76.52,76.44V340.35a76.76,76.76,0,0,0,76.63,76.82H565.13c44.21,0,76.23-35.94,76.23-76.62V303.19a11.24,11.24,0,0,0-11.3-11.32H294.79V174.62a9.43,9.43,0,1,0-18.85,0V298.75c0,7.31,4.64,12,11.37,12H622.47c0,4,0,29.67,0,29.91,0,30.78-24.43,57.69-57.33,57.69H267.85c-29.33,0-57.77-23.26-57.77-57.78V130c0-30.19,25-57.47,57.77-57.47H565.11c33.26,0,57.26,27.38,57.26,57.63v15.54a9.5,9.5,0,0,0,19,0V130.13c0-44.58-37-76.49-76.25-76.49Z" transform="translate(-142.01 -53.64)"/><path class="cls-1" d="M142,526.77V465.69h24.13c13.23,0,22.7,5.3,22.7,19.12,0,14.24-9.47,19.27-22.7,19.27h-11v22.69Zm23.28-33.61c6.06,0,9.9-2.13,9.9-8.35,0-5.81-3.84-8.2-9.9-8.2H155.14v16.55Z" transform="translate(-142.01 -53.64)"/><path class="cls-1" d="M200.11,526.77V465.69h45.46v10.92H213.24v12.54h30v11h-30v15.69h33.44v10.92Z" transform="translate(-142.01 -53.64)"/><path class="cls-1" d="M296.91,526.77l-7.33-12.71c-7.16-12.45-10.49-13.14-13.39-13.14h-5v25.85H258.11V465.69h27.63c11.43,0,22.52,3.59,22.52,16.72,0,10.66-6.91,15.87-15.61,17.07v.17c3.75,1,6.66,5.45,8.87,9.12l10.67,18ZM285.14,491.2c7.25,0,9.48-2.81,9.48-7.33,0-3.92-2.23-7.17-8.79-7.17H271.16v14.5Z" transform="translate(-142.01 -53.64)"/><path class="cls-1" d="M321,526.77V465.69h42v10.92H334.16v13.66h24.9v10.91h-24.9v25.59Z" transform="translate(-142.01 -53.64)"/><path class="cls-1" d="M374.23,526.77V465.69H419.7v10.92H387.37v12.54h30v11h-30v15.69H420.8v10.92Z" transform="translate(-142.01 -53.64)"/><path class="cls-1" d="M484.33,509c-3.59,13.13-12.63,18.76-25.68,18.76-18.34,0-29.43-12.79-29.43-32s12.79-31.14,30.11-31.14c12.62,0,21.41,6.06,24.39,17.41l-12,3.24c-1.88-6.91-6.91-9.47-13.05-9.47-9.3,0-15.87,7.59-15.87,20,0,13.14,6.48,19.95,15.87,19.95,6.65,0,11.42-2.81,13.3-10.57Z" transform="translate(-142.01 -53.64)"/><path class="cls-1" d="M508.6,526.77V476.61H491V465.69H539.4v10.92H521.74v50.16Z" transform="translate(-142.01 -53.64)"/><path class="cls-1" d="M548.09,526.77V465.69h13.14v61.08Z" transform="translate(-142.01 -53.64)"/><path class="cls-1" d="M571.41,496.66c0-19.62,10.15-32,29.59-32,20.64,0,29.68,14.08,29.68,31.65,0,15.35-7.07,31.47-29.51,31.47C577,527.79,571.41,509.71,571.41,496.66Zm45.71-.6c0-5.28-.5-20.13-16-20.13-14.33,0-16.12,12.63-16.12,20.31,0,9.63,3.75,19.52,16.12,20.3C606.38,516.54,617.12,514.15,617.12,496.06Z" transform="translate(-142.01 -53.64)"/><path class="cls-1" d="M677.17,526.77l-22.86-38h-.16v38H642V465.69h12.71L678,504.85h.18V465.69h12.19v61.08Z" transform="translate(-142.01 -53.64)"/><path class="cls-1" d="M687.61,64.9a18.86,18.86,0,0,1,7.74,7.64,20.46,20.46,0,0,1,0,20.61,19.25,19.25,0,0,1-7.62,7.64,20.91,20.91,0,0,1-10.26,2.74,20.69,20.69,0,0,1-10.27-2.74,19.84,19.84,0,0,1-7.7-7.64,20.72,20.72,0,0,1,.05-20.61,19.26,19.26,0,0,1,7.73-7.64,21.07,21.07,0,0,1,10.19-2.68,20.81,20.81,0,0,1,10.09,2.68m-22.27-3.58a22.6,22.6,0,0,0-9.29,9.14,25.48,25.48,0,0,0-3.3,12.43A24.53,24.53,0,0,0,656,95.19a23,23,0,0,0,9.13,9.18,24.84,24.84,0,0,0,24.64,0A22.88,22.88,0,0,0,699,95.19a24.88,24.88,0,0,0,0-24.73,23.19,23.19,0,0,0-9.26-9.14,25.6,25.6,0,0,0-12.17-3.2,25.2,25.2,0,0,0-12.18,3.2" transform="translate(-142.01 -53.64)"/><path class="cls-1" d="M671.43,72.37h5.12a14.09,14.09,0,0,1,4.52.49A4.33,4.33,0,0,1,683,74.32a4,4,0,0,1,.65,2.23,3.72,3.72,0,0,1-1.43,3.11c-1,.78-2.7,1.17-5.32,1.17h-5.49Zm0,24.22V84.69h2.64a5.76,5.76,0,0,1,3.65,1c1.19.86,2.72,3,4.71,6.51l2.45,4.41h5.22L687,91.11a29.73,29.73,0,0,0-4.13-5.55,7.58,7.58,0,0,0-2.39-1.49,8.62,8.62,0,0,0,5.83-2.55,7.56,7.56,0,0,0,2.22-5.35,7,7,0,0,0-1.34-4.1,6.91,6.91,0,0,0-3.52-2.71,23.4,23.4,0,0,0-7.13-.77h-9.61v28Z" transform="translate(-142.01 -53.64)"/></svg>